<svg xmlns="http://www.w3.org/2000/svg"  viewBox="0 0 100 100" width="500px" height="500px"><path fill="#c7ede6" d="M87.215,56.71C88.35,54.555,89,52.105,89,49.5c0-6.621-4.159-12.257-10.001-14.478	C78.999,35.015,79,35.008,79,35c0-11.598-9.402-21-21-21c-9.784,0-17.981,6.701-20.313,15.757C36.211,29.272,34.638,29,33,29	c-7.692,0-14.023,5.793-14.89,13.252C12.906,43.353,9,47.969,9,53.5C9,59.851,14.149,65,20.5,65c0.177,0,0.352-0.012,0.526-0.022	C21.022,65.153,21,65.324,21,65.5C21,76.822,30.178,86,41.5,86c6.437,0,12.175-2.972,15.934-7.614C59.612,80.611,62.64,82,66,82	c4.65,0,8.674-2.65,10.666-6.518C77.718,75.817,78.837,76,80,76c6.075,0,11-4.925,11-11C91,61.689,89.53,58.727,87.215,56.71z"/><path fill="#fdfcef" d="M79.875,60.5c0,0,3.64,0,6.125,0s4.5-2.015,4.5-4.5c0-2.333-1.782-4.229-4.055-4.455 C86.467,51.364,86.5,51.187,86.5,51c0-2.485-2.015-4.5-4.5-4.5c-1.438,0-2.703,0.686-3.527,1.736 C78.333,45.6,76.171,43.5,73.5,43.5c-2.761,0-5,2.239-5,5c0,0.446,0.077,0.87,0.187,1.282C68.045,49.005,67.086,48.5,66,48.5 c-1.781,0-3.234,1.335-3.455,3.055C62.364,51.533,62.187,51.5,62,51.5c-2.485,0-4.5,2.015-4.5,4.5s2.015,4.5,4.5,4.5s9.5,0,9.5,0 h5.375V61h3V60.5z"/><path fill="#472b29" d="M73.5,43c-3.033,0-5.5,2.467-5.5,5.5c0,0.016,0,0.031,0,0.047C67.398,48.192,66.71,48,66,48 c-1.831,0-3.411,1.261-3.858,3.005C62.095,51.002,62.048,51,62,51c-2.757,0-5,2.243-5,5s2.243,5,5,5h14.875 c0.276,0,0.5-0.224,0.5-0.5s-0.224-0.5-0.5-0.5H62c-2.206,0-4-1.794-4-4s1.794-4,4-4c0.117,0,0.23,0.017,0.343,0.032l0.141,0.019 c0.021,0.003,0.041,0.004,0.062,0.004c0.246,0,0.462-0.185,0.495-0.437C63.232,50.125,64.504,49,66,49 c0.885,0,1.723,0.401,2.301,1.1c0.098,0.118,0.241,0.182,0.386,0.182c0.078,0,0.156-0.018,0.228-0.056 c0.209-0.107,0.314-0.346,0.254-0.573C69.054,49.218,69,48.852,69,48.5c0-2.481,2.019-4.5,4.5-4.5c2.381,0,4.347,1.872,4.474,4.263 c0.011,0.208,0.15,0.387,0.349,0.45c0.05,0.016,0.101,0.024,0.152,0.024c0.15,0,0.296-0.069,0.392-0.192 C79.638,47.563,80.779,47,82,47c2.206,0,4,1.794,4,4c0,0.117-0.017,0.23-0.032,0.343l-0.019,0.141 c-0.016,0.134,0.022,0.268,0.106,0.373c0.084,0.105,0.207,0.172,0.34,0.185C88.451,52.247,90,53.949,90,56c0,2.206-1.794,4-4,4 h-6.125c-0.276,0-0.5,0.224-0.5,0.5s0.224,0.5,0.5,0.5H86c2.757,0,5-2.243,5-5c0-2.397-1.689-4.413-4.003-4.877 C86.999,51.082,87,51.041,87,51c0-2.757-2.243-5-5-5c-1.176,0-2.293,0.416-3.183,1.164C78.219,44.76,76.055,43,73.5,43L73.5,43z"/><path fill="#472b29" d="M72,50c-1.403,0-2.609,0.999-2.913,2.341C68.72,52.119,68.301,52,67.875,52 c-1.202,0-2.198,0.897-2.353,2.068C65.319,54.022,65.126,54,64.938,54c-1.529,0-2.811,1.2-2.918,2.732 C62.01,56.87,62.114,56.99,62.251,57c0.006,0,0.012,0,0.018,0c0.13,0,0.24-0.101,0.249-0.232c0.089-1.271,1.151-2.268,2.419-2.268 c0.229,0,0.47,0.042,0.738,0.127c0.022,0.007,0.045,0.01,0.067,0.01c0.055,0,0.11-0.02,0.156-0.054 C65.962,54.537,66,54.455,66,54.375c0-1.034,0.841-1.875,1.875-1.875c0.447,0,0.885,0.168,1.231,0.473 c0.047,0.041,0.106,0.063,0.165,0.063c0.032,0,0.063-0.006,0.093-0.019c0.088-0.035,0.148-0.117,0.155-0.212 C69.623,51.512,70.712,50.5,72,50.5c0.208,0,0.425,0.034,0.682,0.107c0.023,0.007,0.047,0.01,0.07,0.01 c0.109,0,0.207-0.073,0.239-0.182c0.038-0.133-0.039-0.271-0.172-0.309C72.517,50.04,72.256,50,72,50L72,50z"/><path fill="#472b29" d="M85.883,51.5c-1.326,0-2.508,0.897-2.874,2.182c-0.038,0.133,0.039,0.271,0.172,0.309 C83.205,53.997,83.228,54,83.25,54c0.109,0,0.209-0.072,0.24-0.182C83.795,52.748,84.779,52,85.883,52 c0.117,0,0.23,0.014,0.342,0.029c0.012,0.002,0.023,0.003,0.035,0.003c0.121,0,0.229-0.092,0.246-0.217 c0.019-0.137-0.077-0.263-0.214-0.281C86.158,51.516,86.022,51.5,85.883,51.5L85.883,51.5z"/><path fill="#fff" d="M15.405,51H5.5C5.224,51,5,50.776,5,50.5S5.224,50,5.5,50h9.905c0.276,0,0.5,0.224,0.5,0.5 S15.682,51,15.405,51z"/><path fill="#fff" d="M18.5,51h-1c-0.276,0-0.5-0.224-0.5-0.5s0.224-0.5,0.5-0.5h1c0.276,0,0.5,0.224,0.5,0.5 S18.777,51,18.5,51z"/><path fill="#fff" d="M23.491,53H14.5c-0.276,0-0.5-0.224-0.5-0.5s0.224-0.5,0.5-0.5h8.991c0.276,0,0.5,0.224,0.5,0.5 S23.767,53,23.491,53z"/><path fill="#fff" d="M12.5,53h-1c-0.276,0-0.5-0.224-0.5-0.5s0.224-0.5,0.5-0.5h1c0.276,0,0.5,0.224,0.5,0.5 S12.777,53,12.5,53z"/><path fill="#fff" d="M9.5,53h-2C7.224,53,7,52.776,7,52.5S7.224,52,7.5,52h2c0.276,0,0.5,0.224,0.5,0.5S9.777,53,9.5,53z"/><path fill="#fff" d="M15.5,55h-2c-0.276,0-0.5-0.224-0.5-0.5s0.224-0.5,0.5-0.5h2c0.276,0,0.5,0.224,0.5,0.5 S15.776,55,15.5,55z"/><path fill="#fff" d="M18.5,46c-0.177,0-0.823,0-1,0c-0.276,0-0.5,0.224-0.5,0.5c0,0.276,0.224,0.5,0.5,0.5 c0.177,0,0.823,0,1,0c0.276,0,0.5-0.224,0.5-0.5C19,46.224,18.776,46,18.5,46z"/><path fill="#fff" d="M18.5,48c-0.177,0-4.823,0-5,0c-0.276,0-0.5,0.224-0.5,0.5c0,0.276,0.224,0.5,0.5,0.5 c0.177,0,4.823,0,5,0c0.276,0,0.5-0.224,0.5-0.5C19,48.224,18.776,48,18.5,48z"/><path fill="#fff" d="M23.5,50c-0.177,0-2.823,0-3,0c-0.276,0-0.5,0.224-0.5,0.5c0,0.276,0.224,0.5,0.5,0.5 c0.177,0,2.823,0,3,0c0.276,0,0.5-0.224,0.5-0.5C24,50.224,23.776,50,23.5,50z"/><path fill="#fff" d="M72.5,24h-10c-0.276,0-0.5-0.224-0.5-0.5s0.224-0.5,0.5-0.5h10c0.276,0,0.5,0.224,0.5,0.5 S72.776,24,72.5,24z"/><path fill="#fff" d="M76.5,24h-2c-0.276,0-0.5-0.224-0.5-0.5s0.224-0.5,0.5-0.5h2c0.276,0,0.5,0.224,0.5,0.5 S76.776,24,76.5,24z"/><path fill="#fff" d="M81.5,26h-10c-0.276,0-0.5-0.224-0.5-0.5s0.224-0.5,0.5-0.5h10c0.276,0,0.5,0.224,0.5,0.5 S81.777,26,81.5,26z"/><path fill="#fff" d="M69.5,26h-1c-0.276,0-0.5-0.224-0.5-0.5s0.224-0.5,0.5-0.5h1c0.276,0,0.5,0.224,0.5,0.5 S69.776,26,69.5,26z"/><path fill="#fff" d="M66.375,26H64.5c-0.276,0-0.5-0.224-0.5-0.5s0.224-0.5,0.5-0.5h1.875c0.276,0,0.5,0.224,0.5,0.5 S66.651,26,66.375,26z"/><path fill="#fff" d="M75.5,22h-5c-0.276,0-0.5-0.224-0.5-0.5s0.224-0.5,0.5-0.5h5c0.276,0,0.5,0.224,0.5,0.5 S75.777,22,75.5,22z"/><path fill="#fff" d="M72.5,28h-2c-0.276,0-0.5-0.224-0.5-0.5s0.224-0.5,0.5-0.5h2c0.276,0,0.5,0.224,0.5,0.5 S72.776,28,72.5,28z"/><path fill="#edf7f5" d="M37.631,71.323c-4.479,0-8.123-3.644-8.123-8.123V36.8c0-4.479,3.644-8.123,8.123-8.123h26.4	c4.479,0,8.123,3.644,8.123,8.123v26.4c0,4.479-3.644,8.123-8.123,8.123H37.631z"/><path fill="#472b29" d="M65,29.4c3.639,0,6.6,2.961,6.6,6.6v28c0,3.639-2.961,6.6-6.6,6.6H37c-3.639,0-6.6-2.961-6.6-6.6V36	c0-3.639,2.961-6.6,6.6-6.6H65 M65,28H37c-4.418,0-8,3.582-8,8v28c0,4.418,3.582,8,8,8h28c4.418,0,8-3.582,8-8V36	C73,31.582,69.418,28,65,28L65,28z"/><g><path fill="#472b29" d="M63.771,68h-5.893c-0.276,0-0.5-0.224-0.5-0.5s0.224-0.5,0.5-0.5h5.893 C66.103,67,68,65.103,68,62.771V51.096c0-0.276,0.224-0.5,0.5-0.5s0.5,0.224,0.5,0.5v11.675C69,65.654,66.654,68,63.771,68z M54.877,68h-2c-0.276,0-0.5-0.224-0.5-0.5s0.224-0.5,0.5-0.5h2c0.276,0,0.5,0.224,0.5,0.5S55.154,68,54.877,68z M49.877,68H38.229 C35.346,68,33,65.654,33,62.771v-6.92c0-0.276,0.224-0.5,0.5-0.5s0.5,0.224,0.5,0.5v6.92C34,65.103,35.897,67,38.229,67h11.648 c0.276,0,0.5,0.224,0.5,0.5S50.154,68,49.877,68z M33.5,51.351c-0.276,0-0.5-0.224-0.5-0.5V37.229C33,34.346,35.346,32,38.229,32 h3.947c0.276,0,0.5,0.224,0.5,0.5s-0.224,0.5-0.5,0.5h-3.947C35.897,33,34,34.897,34,37.229v13.621 C34,51.127,33.776,51.351,33.5,51.351z M61.771,33H50.176c-0.276,0-0.5-0.224-0.5-0.5s0.224-0.5,0.5-0.5h11.594 c0.276,0,0.5,0.224,0.5,0.5S62.047,33,61.771,33z M47.176,33h-2c-0.276,0-0.5-0.224-0.5-0.5s0.224-0.5,0.5-0.5h2 c0.276,0,0.5,0.224,0.5,0.5S47.453,33,47.176,33z"/></g><g><path fill="#fdfcef" d="M36.5,75.5c0,0,1.567,0,3.5,0s3.5-1.567,3.5-3.5c0-1.781-1.335-3.234-3.055-3.455 C40.473,68.366,40.5,68.187,40.5,68c0-1.933-1.567-3.5-3.5-3.5c-1.032,0-1.95,0.455-2.59,1.165 c-0.384-1.808-1.987-3.165-3.91-3.165c-2.209,0-4,1.791-4,4c0,0.191,0.03,0.374,0.056,0.558C26.128,66.714,25.592,66.5,25,66.5 c-1.228,0-2.245,0.887-2.455,2.055C22.366,68.527,22.187,68.5,22,68.5c-1.933,0-3.5,1.567-3.5,3.5s1.567,3.5,3.5,3.5s7.5,0,7.5,0 V76h7V75.5z"/><path fill="#472b29" d="M38.25,71C38.112,71,38,70.888,38,70.75c0-1.223,0.995-2.218,2.218-2.218 c0.034,0.009,0.737-0.001,1.244,0.136c0.133,0.036,0.212,0.173,0.176,0.306c-0.036,0.134-0.173,0.213-0.306,0.176 c-0.444-0.12-1.1-0.12-1.113-0.118c-0.948,0-1.719,0.771-1.719,1.718C38.5,70.888,38.388,71,38.25,71z"/><circle cx="31.5" cy="75.5" r=".5" fill="#472b29"/><path fill="#472b29" d="M40,76h-3.5c-0.276,0-0.5-0.224-0.5-0.5s0.224-0.5,0.5-0.5H40c1.654,0,3-1.346,3-3 c0-1.496-1.125-2.768-2.618-2.959c-0.134-0.018-0.255-0.088-0.336-0.196s-0.115-0.244-0.094-0.377C39.975,68.314,40,68.16,40,68 c0-1.654-1.346-3-3-3c-0.85,0-1.638,0.355-2.219,1c-0.125,0.139-0.321,0.198-0.5,0.148c-0.182-0.049-0.321-0.195-0.36-0.379 C33.58,64.165,32.141,63,30.5,63c-1.93,0-3.5,1.57-3.5,3.5c0,0.143,0.021,0.28,0.041,0.418c0.029,0.203-0.063,0.438-0.242,0.54 c-0.179,0.102-0.396,0.118-0.556-0.01C25.878,67.155,25.449,67,25,67c-0.966,0-1.792,0.691-1.963,1.644 c-0.048,0.267-0.296,0.446-0.569,0.405C22.314,69.025,22.16,69,22,69c-1.654,0-3,1.346-3,3s1.346,3,3,3h7.5 c0.276,0,0.5,0.224,0.5,0.5S29.776,76,29.5,76H22c-2.206,0-4-1.794-4-4s1.794-4,4-4c0.059,0,0.116,0.002,0.174,0.006 C22.588,66.82,23.711,66,25,66c0.349,0,0.689,0.061,1.011,0.18C26.176,63.847,28.126,62,30.5,62c1.831,0,3.466,1.127,4.153,2.774 C35.333,64.276,36.155,64,37,64c2.206,0,4,1.794,4,4c0,0.048-0.001,0.095-0.004,0.142C42.739,68.59,44,70.169,44,72 C44,74.206,42.206,76,40,76z"/><path fill="#472b29" d="M34.5,75c-0.159,0-0.841,0-1,0c-0.276,0-0.5,0.224-0.5,0.5c0,0.276,0.224,0.5,0.5,0.5 c0.159,0,0.841,0,1,0c0.276,0,0.5-0.224,0.5-0.5C35,75.224,34.776,75,34.5,75z"/></g><g><path fill="#39c1d7" d="M38.973,40.75c-0.511,0-0.927-0.448-0.927-1s0.416-1,0.927-1h23.016c0.511,0,0.927,0.448,0.927,1 s-0.416,1-0.927,1H38.973z"/><path fill="#39c1d7" d="M61.989,39c0.374,0,0.677,0.336,0.677,0.75s-0.303,0.75-0.677,0.75H38.973 c-0.374,0-0.677-0.336-0.677-0.75S38.6,39,38.973,39H61.989 M61.989,38.5H38.973c-0.649,0-1.177,0.561-1.177,1.25 S38.324,41,38.973,41h23.015c0.649,0,1.177-0.561,1.177-1.25S62.638,38.5,61.989,38.5L61.989,38.5z"/></g><g><path fill="#39c1d7" d="M38.973,47.25c-0.511,0-0.927-0.448-0.927-1s0.416-1,0.927-1h23.016c0.511,0,0.927,0.448,0.927,1 s-0.416,1-0.927,1H38.973z"/><path fill="#39c1d7" d="M61.989,45.5c0.374,0,0.677,0.336,0.677,0.75S62.362,47,61.989,47H38.973 c-0.374,0-0.677-0.336-0.677-0.75s0.303-0.75,0.677-0.75H61.989 M61.989,45H38.973c-0.649,0-1.177,0.561-1.177,1.25 s0.528,1.25,1.177,1.25h23.015c0.649,0,1.177-0.561,1.177-1.25S62.638,45,61.989,45L61.989,45z"/></g><g><path fill="#39c1d7" d="M38.973,53.75c-0.511,0-0.927-0.448-0.927-1s0.416-1,0.927-1h22.338c0.511,0,0.927,0.448,0.927,1 s-0.416,1-0.927,1H38.973z"/><path fill="#39c1d7" d="M61.312,52c0.374,0,0.677,0.336,0.677,0.75s-0.303,0.75-0.677,0.75H38.973 c-0.374,0-0.677-0.336-0.677-0.75S38.6,52,38.973,52H61.312 M61.312,51.5H38.973c-0.649,0-1.177,0.561-1.177,1.25 S38.324,54,38.973,54h22.338c0.649,0,1.177-0.561,1.177-1.25S61.961,51.5,61.312,51.5L61.312,51.5z"/></g><g><path fill="#39c1d7" d="M51.711,63.639c-1.39,0-2.686-0.623-3.555-1.708l-0.521-0.649c-0.457-0.571-1.108-0.926-1.835-0.999 c-0.093-0.01-0.185-0.014-0.277-0.014c-0.636,0-1.231,0.216-1.722,0.625l-0.398,0.331c-0.814,0.68-1.849,1.054-2.912,1.054h-1.519 c-0.511,0-0.927-0.416-0.927-0.927s0.416-0.927,0.927-0.927h1.519c0.631,0,1.244-0.222,1.726-0.625l0.399-0.332 c0.817-0.681,1.847-1.055,2.901-1.055c0.156,0,0.313,0.008,0.47,0.023c1.226,0.124,2.326,0.723,3.096,1.686l0.521,0.65 c0.515,0.644,1.283,1.013,2.107,1.013s1.592-0.369,2.106-1.013c0.178-0.221,0.442-0.348,0.725-0.348 c0.209,0,0.415,0.072,0.578,0.203c0.193,0.154,0.315,0.375,0.342,0.621s-0.043,0.488-0.198,0.682 C54.398,63.016,53.103,63.639,51.711,63.639z"/><path fill="#39c1d7" d="M45.516,58.663c0.148,0,0.297,0.008,0.446,0.023c1.16,0.117,2.199,0.683,2.927,1.593l0.521,0.65 c0.563,0.703,1.402,1.107,2.302,1.107s1.74-0.403,2.302-1.106c0.134-0.167,0.331-0.254,0.529-0.254 c0.148,0,0.298,0.048,0.422,0.148c0.292,0.234,0.339,0.659,0.106,0.951c-0.82,1.026-2.044,1.615-3.359,1.615 c-1.314,0-2.538-0.588-3.36-1.615l-0.521-0.65c-0.499-0.624-1.211-1.011-2.006-1.092c-0.1-0.01-0.2-0.015-0.3-0.015 c-0.69,0-1.347,0.236-1.884,0.683l-0.398,0.331c-0.77,0.642-1.748,0.996-2.752,0.996h-1.518c-0.374,0-0.677-0.303-0.677-0.677 s0.303-0.677,0.677-0.677h1.518c0.688,0,1.359-0.242,1.887-0.683l0.398-0.331C43.555,59.011,44.519,58.663,45.516,58.663 M45.516,58.163c-1.112,0-2.198,0.396-3.06,1.114l-0.398,0.331c-0.439,0.366-0.995,0.567-1.567,0.567h-1.518 c-0.649,0-1.177,0.528-1.177,1.177c0,0.649,0.528,1.177,1.177,1.177h1.518c1.122,0,2.213-0.395,3.073-1.113l0.397-0.331 c0.446-0.371,0.987-0.567,1.564-0.567c0.083,0,0.167,0.004,0.251,0.012c0.659,0.067,1.25,0.389,1.664,0.906l0.521,0.65 c0.916,1.145,2.283,1.802,3.75,1.802c1.467,0,2.834-0.657,3.749-1.802c0.196-0.245,0.285-0.552,0.251-0.865 c-0.035-0.312-0.189-0.592-0.434-0.789c-0.208-0.166-0.469-0.258-0.735-0.258c-0.359,0-0.694,0.161-0.919,0.441 c-0.467,0.584-1.164,0.919-1.912,0.919c-0.748,0-1.445-0.335-1.912-0.919l-0.521-0.65c-0.812-1.016-1.973-1.647-3.267-1.778 C45.847,58.171,45.681,58.163,45.516,58.163L45.516,58.163z"/></g><g><path fill="#472b29" d="M49.989,38.5h-3c-0.138,0-0.25,0.112-0.25,0.25S46.851,39,46.989,39h3c0.138,0,0.25-0.112,0.25-0.25 S50.127,38.5,49.989,38.5L49.989,38.5z M61.989,38.5h-10c-0.138,0-0.25,0.112-0.25,0.25S51.851,39,51.989,39h10l0,0 c0.374,0,0.677,0.336,0.677,0.75l0,0l0,0c0,0.414-0.303,0.75-0.677,0.75H38.973c-0.374,0-0.677-0.336-0.677-0.75l0,0l0,0 c0-0.414,0.303-0.75,0.677-0.75h6.015c0.138,0,0.25-0.112,0.25-0.25s-0.112-0.25-0.25-0.25h-6.015c-0.649,0-1.177,0.561-1.177,1.25 S38.324,41,38.973,41h23.015c0.649,0,1.177-0.561,1.177-1.25S62.638,38.5,61.989,38.5L61.989,38.5z"/></g><g><path fill="#472b29" d="M49.989,45h-3c-0.138,0-0.25,0.112-0.25,0.25s0.112,0.25,0.25,0.25h3c0.138,0,0.25-0.112,0.25-0.25 S50.127,45,49.989,45L49.989,45z M61.989,45h-10c-0.138,0-0.25,0.112-0.25,0.25s0.112,0.25,0.25,0.25h10l0,0 c0.374,0,0.677,0.336,0.677,0.75l0,0l0,0c0,0.414-0.303,0.75-0.677,0.75H38.973c-0.374,0-0.677-0.336-0.677-0.75l0,0l0,0 c0-0.414,0.303-0.75,0.677-0.75h6.015c0.138,0,0.25-0.112,0.25-0.25S45.127,45,44.989,45h-6.015c-0.649,0-1.177,0.561-1.177,1.25 s0.528,1.25,1.177,1.25h23.015c0.649,0,1.177-0.561,1.177-1.25S62.638,45,61.989,45L61.989,45z"/></g><g><path fill="#472b29" d="M44.312,51.5h-3c-0.138,0-0.25,0.112-0.25,0.25S41.174,52,41.312,52h3c0.138,0,0.25-0.112,0.25-0.25 S44.45,51.5,44.312,51.5L44.312,51.5z M61.312,51.5h-15c-0.138,0-0.25,0.112-0.25,0.25S46.174,52,46.312,52h15l0,0 c0.374,0,0.677,0.336,0.677,0.75l0,0l0,0c0,0.414-0.303,0.75-0.677,0.75H38.973c-0.374,0-0.677-0.336-0.677-0.75l0,0l0,0 c0-0.414,0.303-0.75,0.677-0.75h0.338c0.138,0,0.25-0.112,0.25-0.25s-0.112-0.25-0.25-0.25h-0.338c-0.649,0-1.177,0.561-1.177,1.25 S38.324,54,38.973,54h22.338c0.649,0,1.177-0.561,1.177-1.25S61.961,51.5,61.312,51.5L61.312,51.5z"/></g><g><path fill="#472b29" d="M38.061,60.935c-0.119,0-0.224,0.085-0.246,0.205c-0.012,0.069-0.019,0.139-0.019,0.211 c0,0.649,0.528,1.177,1.177,1.177h1.518c0.11,0,0.22-0.004,0.33-0.011c0.138-0.01,0.242-0.129,0.232-0.267 c-0.009-0.132-0.119-0.233-0.249-0.233c-0.006,0-0.012,0-0.018,0.001l0,0c-0.001,0-0.003,0-0.004,0c0,0-0.001,0-0.001,0 c-0.002,0-0.003,0-0.004,0c-0.001,0-0.001,0-0.002,0c-0.002,0-0.003,0-0.005,0c-0.001,0-0.002,0-0.004,0c-0.001,0-0.001,0-0.002,0 c-0.001,0-0.003,0-0.004,0h-0.001c-0.07,0.005-0.14,0.007-0.21,0.008c0,0,0,0,0,0c-0.002,0-0.004,0-0.005,0h-0.001 c-0.002,0-0.003,0-0.005,0h0c-0.002,0-0.004,0-0.006,0h0c-0.002,0-0.003,0-0.005,0c0,0-0.001,0-0.001,0c-0.001,0-0.003,0-0.004,0 c0,0-0.001,0-0.001,0c-0.002,0-0.003,0-0.005,0c0,0,0,0,0,0c-0.002,0-0.004,0-0.006,0c0,0-0.001,0-0.001,0 c-0.001,0-0.003,0-0.004,0c0,0-0.001,0-0.002,0c-0.001,0-0.003,0-0.004,0c-0.001,0-0.001,0-0.001,0c-0.002,0-0.004,0-0.006,0l0,0 h-1.518c-0.374,0-0.677-0.303-0.677-0.677l0,0l0,0c0,0,0-0.001,0-0.002v-0.001c0,0,0-0.001,0-0.001c0,0,0,0,0-0.001 c0,0,0-0.001,0-0.001c0,0,0-0.001,0-0.001c0,0,0-0.001,0-0.001c0,0,0-0.001,0-0.001v-0.001l0-0.001l0-0.001v-0.001l0-0.002 c0,0,0,0,0,0c0-0.001,0-0.001,0-0.002v0c0-0.001,0-0.001,0-0.002c0,0,0,0,0,0l0-0.002l0-0.001l0-0.002l0-0.001l0-0.001c0,0,0,0,0,0 c0-0.001,0-0.001,0-0.002l0-0.001c0,0,0-0.001,0-0.002l0,0c0-0.001,0-0.001,0-0.002v0c0-0.002,0-0.004,0-0.006l0,0 c0,0,0-0.001,0-0.002l0,0c0-0.001,0-0.001,0-0.002l0,0c0-0.001,0-0.001,0-0.002l0,0c0-0.001,0-0.001,0-0.001l0-0.001 c0.002-0.025,0.005-0.05,0.009-0.074c0.025-0.136-0.065-0.266-0.201-0.291C38.091,60.936,38.076,60.935,38.061,60.935 L38.061,60.935z M45.526,60.018c-0.69,0-1.347,0.236-1.884,0.683l0,0c0,0-0.006,0.005-0.017,0.014l0,0 c-0.011,0.009-0.026,0.022-0.045,0.037l0,0c-0.019,0.016-0.04,0.034-0.064,0.053l0,0c-0.023,0.019-0.048,0.04-0.073,0.061l0,0 c-0.025,0.021-0.05,0.041-0.073,0.061l0,0c-0.022,0.019-0.044,0.036-0.062,0.051l-0.011,0.009c0,0,0,0-0.001,0l-0.008,0.007 c0,0,0,0-0.001,0l-0.007,0.006l0,0l-0.006,0.005c0,0-0.001,0-0.001,0.001l-0.001,0.001c-0.001,0.001-0.002,0.002-0.003,0.002 l-0.001,0.001l-0.001,0.001l0,0c0,0,0,0,0,0l-0.002,0.001c0,0-0.001,0.001-0.001,0.001l-0.001,0.001c0,0-0.001,0.001-0.001,0.001 l-0.001,0.001l-0.001,0l-0.003,0.002h0l-0.006,0.005c0,0,0,0,0,0l-0.003,0.002l0,0l-0.001,0.001l0,0l0,0 c0,0-0.001,0.001-0.001,0.001l-0.001,0l-0.001,0.001l0,0c0,0,0,0,0,0l0,0h0l-0.001,0.001c-0.002,0.001-0.003,0.003-0.005,0.004 c0,0-0.001,0.001-0.002,0.001c-0.001,0.001-0.002,0.002-0.003,0.003c-0.001,0-0.001,0.001-0.002,0.002 c-0.001,0.001-0.002,0.001-0.003,0.002c-0.001,0.001-0.001,0.001-0.002,0.002c-0.001,0.001-0.002,0.001-0.003,0.002 c-0.001,0.001-0.002,0.001-0.002,0.002c-0.001,0.001-0.002,0.001-0.003,0.002c-0.001,0.001-0.002,0.001-0.002,0.002 c-0.001,0.001-0.002,0.001-0.002,0.002c-0.001,0.001-0.002,0.001-0.002,0.002c-0.001,0.001-0.002,0.001-0.002,0.002 c-0.003,0.003-0.007,0.005-0.01,0.008c0,0-0.001,0.001-0.002,0.001c-0.001,0.001-0.002,0.002-0.003,0.002l-0.002,0.001 c-0.001,0.001-0.002,0.002-0.003,0.002c-0.001,0.001-0.001,0.001-0.001,0.001c-0.002,0.001-0.003,0.002-0.004,0.003 c-0.001,0-0.001,0.001-0.002,0.002c-0.001,0.001-0.002,0.002-0.003,0.002c-0.001,0-0.001,0.001-0.002,0.001 c-0.001,0.001-0.002,0.002-0.003,0.002c0,0-0.001,0.001-0.001,0.001c-0.005,0.004-0.011,0.009-0.016,0.013 c0,0-0.001,0.001-0.001,0.001c-0.001,0.001-0.002,0.002-0.003,0.003c0,0-0.001,0.001-0.001,0.001 c-0.001,0.001-0.002,0.002-0.003,0.003c0,0-0.001,0.001-0.001,0.001c-0.001,0.001-0.002,0.002-0.003,0.003l-0.001,0.001 c-0.001,0.001-0.002,0.002-0.003,0.003c0,0-0.001,0.001-0.001,0.001c-0.001,0.001-0.003,0.002-0.004,0.003c0,0,0,0,0,0 c-0.006,0.005-0.012,0.009-0.018,0.014c0,0-0.001,0-0.001,0c-0.002,0.001-0.003,0.002-0.004,0.003c0,0-0.001,0.001-0.001,0.001 c-0.001,0.001-0.003,0.002-0.004,0.003l-0.001,0.001c-0.001,0.001-0.003,0.002-0.004,0.003c0,0,0,0-0.001,0 c-0.001,0.001-0.003,0.002-0.004,0.003h0c-0.008,0.006-0.015,0.012-0.023,0.017l0,0c-0.001,0.001-0.003,0.002-0.004,0.003l-0.001,0 c-0.001,0.001-0.003,0.002-0.004,0.003l0,0c-0.011,0.008-0.022,0.016-0.033,0.024c0,0,0,0,0,0 c-0.002,0.001-0.003,0.002-0.005,0.003c0,0,0,0,0,0c-0.146,0.107-0.299,0.204-0.457,0.291h0c-0.002,0.001-0.003,0.002-0.005,0.003 l0,0c-0.012,0.006-0.024,0.013-0.036,0.019c0,0,0,0,0,0c-0.002,0.001-0.003,0.002-0.005,0.003l0,0 c-0.002,0.001-0.003,0.002-0.005,0.003l0,0c-0.01,0.005-0.02,0.011-0.03,0.016l-0.001,0c-0.002,0.001-0.003,0.002-0.005,0.002 c0,0-0.001,0-0.001,0c-0.002,0.001-0.003,0.002-0.005,0.002c0,0-0.001,0-0.001,0c-0.002,0.001-0.003,0.002-0.005,0.002l0,0 c-0.008,0.004-0.017,0.009-0.025,0.013c0,0,0,0,0,0c-0.002,0.001-0.003,0.002-0.005,0.002c0,0-0.001,0-0.001,0 c-0.002,0.001-0.003,0.002-0.005,0.002c0,0-0.001,0-0.001,0.001c-0.001,0.001-0.003,0.001-0.004,0.002c0,0-0.001,0-0.001,0 c-0.002,0.001-0.003,0.002-0.005,0.002l0,0c-0.007,0.003-0.013,0.007-0.02,0.01c0,0-0.001,0-0.001,0 c-0.001,0.001-0.003,0.001-0.004,0.002c0,0-0.001,0-0.001,0c-0.002,0.001-0.003,0.001-0.004,0.002c-0.001,0-0.001,0-0.002,0.001 c-0.001,0.001-0.003,0.001-0.004,0.002c-0.001,0-0.001,0-0.002,0.001c-0.001,0.001-0.003,0.001-0.004,0.002c0,0-0.001,0-0.001,0 c-0.002,0.001-0.003,0.002-0.005,0.002c0,0,0,0,0,0c-0.005,0.002-0.009,0.005-0.014,0.007L42.363,61.6 c-0.001,0.001-0.002,0.001-0.004,0.002c-0.001,0-0.001,0.001-0.002,0.001c-0.001,0-0.002,0.001-0.003,0.002 c-0.001,0-0.001,0.001-0.002,0.001c-0.001,0-0.002,0.001-0.003,0.002c-0.001,0-0.001,0.001-0.002,0.001 c-0.001,0.001-0.002,0.001-0.003,0.002c-0.001,0-0.001,0.001-0.002,0.001c-0.001,0-0.002,0.001-0.003,0.002 c-0.001,0-0.001,0.001-0.002,0.001c-0.001,0.001-0.002,0.001-0.004,0.002l-0.001,0c-0.003,0.001-0.005,0.002-0.008,0.004 c-0.001,0-0.001,0.001-0.001,0.001c-0.002,0.001-0.003,0.001-0.004,0.002c-0.001,0-0.002,0.001-0.002,0.001 c-0.001,0-0.002,0.001-0.003,0.001c-0.001,0-0.002,0.001-0.003,0.001c-0.001,0-0.002,0.001-0.003,0.001 c-0.001,0-0.002,0.001-0.003,0.001c-0.001,0-0.002,0.001-0.003,0.001c-0.001,0-0.002,0.001-0.003,0.001 c-0.001,0-0.002,0.001-0.003,0.001c-0.001,0-0.002,0.001-0.003,0.001c-0.001,0-0.002,0.001-0.002,0.001 c-0.002,0.001-0.003,0.001-0.004,0.002c-0.001,0-0.001,0.001-0.002,0.001c-0.002,0.001-0.004,0.002-0.006,0.003 c-0.001,0-0.001,0-0.002,0.001c-0.001,0-0.003,0.001-0.004,0.002c-0.001,0-0.002,0.001-0.002,0.001 c-0.001,0.001-0.002,0.001-0.003,0.002c-0.001,0-0.002,0.001-0.002,0.001c-0.001,0-0.002,0.001-0.003,0.001 c-0.001,0-0.002,0.001-0.002,0.001c-0.001,0-0.002,0.001-0.003,0.002c0,0-0.001,0.001-0.002,0.001 c-0.001,0-0.002,0.001-0.004,0.002c-0.001,0-0.001,0.001-0.001,0.001c-0.002,0.001-0.004,0.002-0.005,0.002l-0.001,0.001 c-0.004,0.002-0.008,0.004-0.012,0.005l-0.001,0.001c-0.001,0.001-0.003,0.001-0.004,0.002c-0.001,0-0.001,0-0.001,0 c-0.002,0.001-0.003,0.001-0.005,0.002c-0.001,0-0.001,0-0.002,0.001c-0.001,0.001-0.003,0.001-0.004,0.002 c-0.001,0-0.001,0-0.002,0.001c-0.001,0.001-0.003,0.001-0.004,0.002c-0.001,0-0.001,0-0.002,0.001 c-0.002,0.001-0.003,0.001-0.005,0.002c0,0-0.001,0-0.001,0c-0.006,0.003-0.012,0.005-0.018,0.008l-0.001,0 c-0.002,0.001-0.003,0.001-0.005,0.002c0,0-0.001,0-0.001,0c-0.002,0.001-0.004,0.001-0.005,0.002c0,0-0.001,0-0.001,0.001 c-0.002,0.001-0.003,0.001-0.005,0.002c0,0-0.001,0-0.001,0c-0.002,0.001-0.004,0.002-0.006,0.002l-0.001,0 c-0.008,0.003-0.016,0.007-0.024,0.01c0,0,0,0,0,0c-0.002,0.001-0.004,0.002-0.006,0.002l0,0c-0.002,0.001-0.004,0.002-0.006,0.002 l0,0c-0.002,0.001-0.004,0.002-0.006,0.002h0c-0.114,0.047-0.23,0.088-0.348,0.125c-0.131,0.041-0.204,0.181-0.163,0.313 c0.033,0.107,0.132,0.176,0.239,0.176c0.025,0,0.05-0.004,0.074-0.011c0.608-0.189,1.162-0.49,1.648-0.896l0.397-0.331 c0.446-0.371,0.987-0.567,1.564-0.567c0.083,0,0.167,0.004,0.251,0.012c0.659,0.067,1.25,0.389,1.664,0.906l0.521,0.65 c0.916,1.145,2.283,1.802,3.75,1.802c1.467,0,2.834-0.657,3.749-1.802c0.196-0.245,0.285-0.552,0.251-0.865 c-0.035-0.312-0.189-0.592-0.434-0.789c-0.208-0.166-0.469-0.258-0.735-0.258h0c-0.359,0-0.694,0.161-0.919,0.441 c-0.432,0.54-1.048,0.864-1.735,0.913c-0.138,0.01-0.241,0.129-0.232,0.267c0.009,0.132,0.119,0.232,0.249,0.232 c0.006,0,0.012,0,0.018-0.001c0.078-0.005,0.156-0.014,0.233-0.026l0,0c0.001,0,0.003,0,0.004-0.001l0,0 c0.001,0,0.003,0,0.004-0.001c0,0,0,0,0,0c0.002,0,0.003,0,0.005-0.001c0,0,0,0,0,0c0.002,0,0.003,0,0.004-0.001h0 c0.012-0.002,0.025-0.004,0.037-0.006c0,0,0,0,0,0c0.002,0,0.003,0,0.004-0.001c0,0,0,0,0.001,0c0.001,0,0.003,0,0.004-0.001 c0,0,0.001,0,0.001,0c0.001,0,0.002,0,0.004-0.001c0,0,0.001,0,0.001,0c0.002,0,0.003,0,0.004-0.001c0,0,0.001,0,0.001,0 c0.002,0,0.003,0,0.004-0.001c0,0,0.001,0,0.001,0c0.001,0,0.003,0,0.004-0.001l0,0c0.008-0.001,0.015-0.003,0.023-0.004l0.001,0 c0.001,0,0.003,0,0.004-0.001c0,0,0,0,0,0c0.002,0,0.003,0,0.004-0.001c0,0,0.001,0,0.001,0c0.001,0,0.002,0,0.004-0.001 c0,0,0.001,0,0.001,0c0.001,0,0.002,0,0.003-0.001c0,0,0.001,0,0.001,0c0.001,0,0.002,0,0.003-0.001l0.001,0 c0.001,0,0.002,0,0.004-0.001l0.001,0c0.001,0,0.002,0,0.004-0.001c0,0,0.001,0,0.001,0c0.001,0,0.002,0,0.004-0.001 c0,0,0.001,0,0.001,0c0.006-0.001,0.012-0.002,0.017-0.004c0,0,0.001,0,0.001,0c0.001,0,0.003,0,0.004-0.001c0,0,0.001,0,0.001,0 c0.002,0,0.003,0,0.004-0.001c0,0,0.001,0,0.001,0c0.001,0,0.002,0,0.003-0.001c0.001,0,0.001,0,0.002,0 c0.001,0,0.002,0,0.003-0.001c0.001,0,0.001,0,0.001,0c0.002,0,0.003,0,0.004-0.001c0.001,0,0.001,0,0.001,0 c0.002,0,0.003-0.001,0.004-0.001c0.001,0,0.001,0,0.002,0c0.001,0,0.002,0,0.003-0.001c0.001,0,0.001,0,0.002,0 c0.001,0,0.002,0,0.003-0.001l0.002,0c0.001,0,0.002,0,0.003-0.001c0,0,0.001,0,0.001,0c0.004-0.001,0.008-0.002,0.012-0.003 c0,0,0.001,0,0.001,0c0.001,0,0.002,0,0.003-0.001l0.002,0c0.001,0,0.002,0,0.003-0.001c0.001,0,0.001,0,0.001,0 c0.002,0,0.003-0.001,0.003-0.001c0.001,0,0.001,0,0.002,0c0.001,0,0.002,0,0.003-0.001c0,0,0.001,0,0.002,0 c0.001,0,0.002,0,0.003-0.001c0,0,0.001,0,0.002,0c0.001,0,0.002,0,0.003-0.001c0.001,0,0.002,0,0.002-0.001 c0,0,0.002,0,0.003-0.001c0.001,0,0.002,0,0.002,0c0.002,0,0.002,0,0.003-0.001c0.001,0,0.002,0,0.002-0.001 c0.001,0,0.002,0,0.002-0.001c0,0,0.002,0,0.002-0.001c0.001,0,0.002,0,0.002,0c0.002,0,0.003-0.001,0.003-0.001 c0.001,0,0.001,0,0.001,0c0.002,0,0.004-0.001,0.005-0.001c0,0,0.001,0,0.001,0c0.001,0,0.002,0,0.003-0.001 c0.001,0,0.001,0,0.002,0c0.001,0,0.002,0,0.003-0.001c0.001,0,0.001,0,0.002-0.001c0.001,0,0.002,0,0.003-0.001 c0.001,0,0.001,0,0.001,0c0.002,0,0.002-0.001,0.003-0.001c0.001,0,0.001,0,0.002,0c0.001,0,0.002,0,0.003-0.001 c0.001,0,0.001,0,0.002,0c0.001,0,0.002,0,0.003-0.001c0,0,0.001,0,0.002,0c0.001,0,0.002-0.001,0.003-0.001c0,0,0.001,0,0.002,0 c0.001,0,0.002,0,0.002,0c0.002,0,0.002-0.001,0.003-0.001c0.001,0,0.002,0,0.003-0.001c0.001,0,0.001,0,0.001,0 c0.002,0,0.003-0.001,0.004-0.001c0,0,0.001,0,0.001,0c0.003-0.001,0.006-0.002,0.01-0.003l0.001,0 c0.001,0,0.003-0.001,0.004-0.001c0,0,0.001,0,0.001,0c0.001,0,0.002-0.001,0.004-0.001c0,0,0.001,0,0.001,0 c0.001,0,0.002-0.001,0.003-0.001l0.001,0c0.001,0,0.002-0.001,0.003-0.001l0.002,0c0.001,0,0.002-0.001,0.003-0.001 c0,0,0.001,0,0.001,0c0.002,0,0.003-0.001,0.004-0.001c0,0,0.001,0,0.001,0c0.001,0,0.002-0.001,0.003-0.001c0,0,0.001,0,0.001,0 c0.001,0,0.002-0.001,0.003-0.001c0,0,0.001,0,0.001,0c0.001,0,0.003-0.001,0.004-0.001c0,0,0.001,0,0.001,0 c0.007-0.002,0.013-0.004,0.02-0.006l0.001,0c0.001,0,0.003-0.001,0.004-0.001c0,0,0.001,0,0.001,0 c0.002,0,0.003-0.001,0.004-0.001c0,0,0.001,0,0.001,0c0.002,0,0.003-0.001,0.004-0.001l0.001,0c0.001,0,0.002-0.001,0.004-0.001 l0.001,0c0.001,0,0.003-0.001,0.004-0.001c0,0,0.001,0,0.001,0c0.001,0,0.003-0.001,0.004-0.001l0.001,0 c0.001,0,0.003-0.001,0.004-0.001c0,0,0,0,0.001,0c0.008-0.003,0.016-0.005,0.024-0.008h0c0.002,0,0.003-0.001,0.005-0.001l0.001,0 c0.001,0,0.003-0.001,0.004-0.001c0,0,0,0,0.001,0c0.001,0,0.003-0.001,0.004-0.001c0,0,0.001,0,0.001,0 c0.001,0,0.003-0.001,0.004-0.001l0.001,0c0.001,0,0.003-0.001,0.004-0.001c0,0,0,0,0,0c0.002,0,0.003-0.001,0.005-0.001 c0,0,0,0,0,0c0.011-0.004,0.023-0.008,0.034-0.011l0,0c0.001-0.001,0.003-0.001,0.004-0.002l0.001,0 c0.001,0,0.003-0.001,0.004-0.001c0,0,0,0,0.001,0c0.001,0,0.003-0.001,0.004-0.001l0.001,0c0.001,0,0.003-0.001,0.004-0.001l0,0 c0.013-0.005,0.026-0.009,0.038-0.014c0,0,0,0,0,0c0.002-0.001,0.003-0.001,0.005-0.002l0,0c0.001,0,0.003-0.001,0.005-0.002h0 c0.001-0.001,0.003-0.001,0.005-0.002l0,0c0.26-0.098,0.505-0.232,0.728-0.399h0c0.011-0.008,0.022-0.016,0.033-0.025h0 c0.001-0.001,0.003-0.002,0.004-0.003c0,0,0,0,0,0c0.001-0.001,0.003-0.002,0.004-0.003l0,0c0.001-0.001,0.003-0.002,0.004-0.003 l0,0c0.001-0.001,0.003-0.002,0.004-0.003l0,0c0.011-0.008,0.021-0.017,0.032-0.026l0,0c0.001-0.001,0.002-0.002,0.004-0.003l0,0 c0.001-0.001,0.002-0.002,0.004-0.003l0,0c0.001-0.001,0.002-0.002,0.004-0.003l0,0c0.001-0.001,0.002-0.002,0.004-0.003l0,0 c0.009-0.008,0.018-0.015,0.028-0.023l0,0c0.001-0.001,0.002-0.002,0.004-0.003l0.001,0c0.001-0.001,0.002-0.002,0.003-0.003l0,0 c0.001-0.001,0.002-0.002,0.003-0.003c0,0,0,0,0,0c0.001-0.001,0.002-0.002,0.004-0.003l0.001,0 c0.001-0.001,0.002-0.002,0.003-0.003l0,0c0.008-0.007,0.016-0.013,0.023-0.02c0,0,0,0,0,0c0.001-0.001,0.002-0.002,0.004-0.003 l0.001,0c0.001-0.001,0.002-0.002,0.003-0.003c0,0,0.001,0,0.001-0.001c0.001-0.001,0.002-0.002,0.003-0.003c0,0,0.001,0,0.001,0 c0.001-0.001,0.002-0.002,0.003-0.003l0.001-0.001c0.001-0.001,0.002-0.002,0.003-0.003c0,0,0.001,0,0.001-0.001 c0.001-0.001,0.002-0.002,0.003-0.003c0,0,0.001,0,0.001,0c0.001-0.001,0.003-0.002,0.004-0.003l0,0 c0.005-0.005,0.01-0.009,0.015-0.014c0,0,0,0,0,0c0.001-0.001,0.002-0.002,0.003-0.003l0.001-0.001 c0.001-0.001,0.002-0.002,0.003-0.003c0,0,0.001,0,0.001-0.001c0.001-0.001,0.002-0.002,0.003-0.003c0,0,0.001,0,0.001,0 c0.001-0.001,0.002-0.002,0.003-0.003c0,0,0.001,0,0.001-0.001c0.001-0.001,0.002-0.002,0.003-0.003l0.001-0.001 c0.001-0.001,0.002-0.002,0.003-0.003c0,0,0.001,0,0.001-0.001c0.001-0.001,0.002-0.002,0.003-0.003l0.001-0.001 c0.001-0.001,0.002-0.002,0.003-0.003l0,0c0.004-0.003,0.008-0.007,0.011-0.01l0.001,0c0.001-0.001,0.002-0.002,0.003-0.003 c0,0,0.001-0.001,0.001-0.001c0.001-0.001,0.002-0.002,0.003-0.003c0,0,0.001-0.001,0.001-0.001 c0.001-0.001,0.002-0.002,0.003-0.003c0,0,0.001-0.001,0.001-0.001c0.001-0.001,0.002-0.002,0.003-0.003 c0,0,0.001-0.001,0.001-0.001c0.001-0.001,0.002-0.002,0.002-0.002c0,0,0.001-0.001,0.001-0.001 c0.001-0.001,0.002-0.002,0.003-0.002c0,0,0.001-0.001,0.001-0.001c0.001-0.001,0.002-0.002,0.003-0.003c0,0,0.001,0,0.001-0.001 c0.001-0.001,0.002-0.002,0.003-0.003c0,0,0,0,0.001-0.001c0.001-0.001,0.002-0.002,0.003-0.003l0,0 c0.002-0.002,0.005-0.005,0.007-0.007l0,0c0.001-0.001,0.002-0.002,0.004-0.003c0,0,0.001-0.001,0.001-0.001 c0.001-0.001,0.002-0.002,0.003-0.003c0,0,0.001-0.001,0.001-0.001c0.001-0.001,0.002-0.002,0.003-0.003l0.001-0.001 c0.001-0.001,0.002-0.002,0.002-0.002c0,0,0.001-0.001,0.001-0.001c0.001-0.001,0.001-0.001,0.002-0.002 c0.001,0,0.001-0.001,0.001-0.001c0.001-0.001,0.001-0.001,0.002-0.002c0,0,0.001-0.001,0.001-0.001 c0.001-0.001,0.002-0.002,0.002-0.002c0,0,0.001-0.001,0.001-0.001c0.001-0.001,0.002-0.002,0.003-0.002l0.001-0.001 c0.001-0.001,0.002-0.002,0.003-0.003c0,0,0.001,0,0.001-0.001c0.004-0.004,0.007-0.007,0.011-0.011c0,0,0,0,0,0 c0.001-0.001,0.002-0.002,0.003-0.003l0.001-0.001c0.001-0.001,0.002-0.002,0.002-0.003c0,0,0.001-0.001,0.001-0.001 c0.001-0.001,0.002-0.002,0.002-0.002c0,0,0.001-0.001,0.001-0.001c0.001-0.001,0.002-0.002,0.003-0.003 c0,0,0.001-0.001,0.001-0.001c0.001-0.001,0.001-0.001,0.002-0.002c0,0,0.001-0.001,0.001-0.001 c0.001-0.001,0.001-0.002,0.002-0.002c0,0,0.001-0.001,0.001-0.001c0.001-0.001,0.001-0.001,0.002-0.002l0.001-0.001 c0.001-0.001,0.001-0.002,0.001-0.002c0.001-0.001,0.002-0.002,0.002-0.002c0.001-0.001,0.001-0.002,0.002-0.002 c0,0,0.001-0.001,0.001-0.001c0.001-0.001,0.002-0.002,0.003-0.003c0,0,0,0,0.001-0.001c0.001-0.001,0.002-0.002,0.003-0.004 c0,0,0,0,0.001-0.001c0.001-0.001,0.002-0.002,0.003-0.003c0,0,0.001-0.001,0.001-0.001c0.001-0.001,0.002-0.002,0.003-0.003 c0,0,0.001-0.001,0.001-0.001c0.001-0.001,0.002-0.002,0.003-0.003c0,0,0.001-0.001,0.001-0.001 c0.001-0.001,0.001-0.001,0.002-0.002c0-0.001,0.001-0.001,0.001-0.001c0.001-0.001,0.002-0.002,0.002-0.003 c0.001-0.001,0.001-0.001,0.001-0.002c0,0,0.001-0.001,0.002-0.002l0.002-0.002c0.001-0.001,0.001-0.001,0.002-0.002 c0.001-0.001,0.001-0.001,0.001-0.002c0.001-0.001,0.001-0.001,0.001-0.001c0.001-0.001,0.002-0.002,0.002-0.002 c0.001-0.001,0.001-0.001,0.002-0.002c0,0,0.001-0.001,0.001-0.001c0.001-0.001,0.001-0.002,0.002-0.002 c0,0,0.001-0.001,0.001-0.001c0.001-0.001,0.002-0.002,0.003-0.003c0,0,0,0,0,0c0.001-0.001,0.002-0.003,0.004-0.004 c0,0,0.001-0.001,0.001-0.001c0.001-0.001,0.001-0.002,0.002-0.002c0-0.001,0.001-0.001,0.001-0.001 c0.001-0.001,0.002-0.002,0.002-0.002c0.001-0.001,0.002-0.002,0.002-0.002c0.001-0.001,0.001-0.001,0.002-0.002 c0,0,0.001-0.001,0.001-0.002c0.001-0.001,0.001-0.001,0.002-0.002l0.001-0.002c0.001-0.001,0.001-0.001,0.002-0.002 c0-0.001,0.001-0.001,0.001-0.002c0.001-0.001,0.001-0.001,0.002-0.002c0,0,0.001-0.001,0.001-0.002 c0.001-0.001,0.001-0.001,0.002-0.002c0.001-0.001,0.001-0.001,0.001-0.002c0.001-0.001,0.001-0.001,0.002-0.002 c0,0,0.001-0.001,0.001-0.001c0,0,0.001-0.002,0.002-0.002l0.001-0.002c0.001-0.001,0.001-0.002,0.002-0.002 c0,0,0.001-0.001,0.001-0.001c0.002-0.002,0.003-0.003,0.004-0.004c0,0,0,0,0,0c0.001-0.001,0.002-0.002,0.003-0.003l0.001-0.001 c0.001-0.001,0.002-0.002,0.002-0.003c0,0,0.001-0.001,0.001-0.001c0.001-0.001,0.001-0.001,0.002-0.002l0.001-0.002 c0.001-0.001,0.001-0.001,0.002-0.002c0-0.001,0.001-0.001,0.001-0.002c0.001-0.001,0.001-0.001,0.002-0.002 c0-0.001,0.001-0.001,0.002-0.002C53.954,61,53.955,61,53.955,60.999c0.001-0.001,0.001-0.001,0.002-0.002 c0.001-0.001,0.001-0.001,0.002-0.002c0,0,0.001-0.001,0.002-0.002c0.001-0.001,0.001-0.001,0.002-0.002l0.001-0.002 c0.001-0.001,0.001-0.002,0.002-0.002c0-0.001,0.001-0.001,0.001-0.002c0.001-0.001,0.001-0.002,0.002-0.002l0.001-0.001 c0.001-0.001,0.002-0.002,0.002-0.003c0,0,0.001-0.001,0.001-0.001c0.001-0.002,0.002-0.003,0.004-0.004 c0,0,0.001-0.001,0.001-0.001c0.001-0.001,0.002-0.002,0.003-0.003l0.001-0.002c0.001-0.001,0.001-0.002,0.002-0.002l0.001-0.002 c0.001-0.001,0.001-0.001,0.002-0.002c0-0.001,0.001-0.001,0.001-0.002c0.001-0.001,0.001-0.002,0.002-0.002 c0,0,0.001-0.001,0.001-0.002c0.001-0.001,0.001-0.001,0.002-0.002c0,0,0.001-0.001,0.001-0.002 c0.001-0.001,0.001-0.001,0.002-0.002c0-0.001,0.001-0.001,0.001-0.001c0.001-0.001,0.002-0.002,0.002-0.003 c0,0,0.001-0.001,0.001-0.001c0.001-0.001,0.002-0.002,0.002-0.002c0.001-0.001,0.001-0.002,0.002-0.002 c0.001-0.001,0.001-0.002,0.002-0.002c0,0,0.001-0.001,0.001-0.001c0.001-0.001,0.001-0.002,0.002-0.003l0.001-0.001 c0.001-0.001,0.002-0.003,0.003-0.004l0,0c0.134-0.167,0.331-0.254,0.529-0.254h0l0,0l0,0h0.001c0.145,0,0.29,0.046,0.413,0.141 c0.001,0.001,0.003,0.002,0.004,0.003l0.001,0.001c0.001,0,0.001,0.001,0.002,0.001c0.001,0,0.001,0.001,0.002,0.002 c0.146,0.117,0.231,0.282,0.25,0.454c0.009,0.079,0.004,0.159-0.015,0.237c-0.023,0.092-0.065,0.181-0.129,0.26 c-0.82,1.026-2.044,1.615-3.359,1.615c-1.314,0-2.538-0.588-3.36-1.615l0,0l0,0l0,0c0,0,0,0,0,0l0,0l0,0h0l0,0h0l-0.001-0.001l0,0 h0l0,0l0,0l0,0l0,0l0,0c0,0,0,0,0,0l0,0c0,0-0.001-0.001-0.001-0.001l-0.001-0.001c-0.001-0.001-0.001-0.001-0.002-0.002h0 l-0.001-0.001l0,0c0,0-0.001-0.001-0.001-0.001l-0.001-0.001l0,0l0,0c0-0.001-0.001-0.001-0.001-0.001L48.34,61.76l0,0l0,0 l-0.001-0.001l0,0c0,0-0.001-0.001-0.001-0.001l0,0l0,0l0,0c0,0-0.001-0.001-0.001-0.001l0,0c0,0,0,0,0-0.001h0 c-0.001-0.002-0.003-0.004-0.004-0.006l0,0c-0.001-0.001-0.001-0.001-0.001-0.001l-0.002-0.002 c-0.002-0.002-0.004-0.005-0.006-0.007l0,0c0-0.001-0.001-0.001-0.001-0.001l-0.002-0.002c0,0,0,0-0.001-0.001l-0.002-0.002 c-0.002-0.003-0.004-0.005-0.007-0.008l0,0c-0.002-0.002-0.003-0.004-0.005-0.006l0,0c0,0-0.001-0.001-0.002-0.002l-0.001-0.001 c-0.001-0.001-0.002-0.003-0.003-0.004l-0.004-0.005c0,0-0.001-0.001-0.001-0.001l-0.002-0.002c0,0,0,0,0,0l-0.001-0.001 c-0.001-0.001-0.001-0.001-0.002-0.002l-0.001-0.001c-0.001-0.002-0.003-0.003-0.004-0.005l-0.001-0.001c0,0,0,0,0,0l-0.001-0.001 c-0.001-0.001-0.002-0.002-0.003-0.003l0,0c-0.003-0.004-0.006-0.008-0.009-0.012l0,0c-0.004-0.005-0.008-0.009-0.011-0.014 l-0.004-0.005c-0.013-0.016-0.026-0.033-0.04-0.05l0-0.001c0,0-0.001-0.001-0.001-0.001L48.212,61.6 c-0.006-0.007-0.012-0.015-0.018-0.022l-0.001-0.001c0,0-0.001-0.001-0.001-0.001l0,0c-0.001-0.001-0.002-0.002-0.002-0.003 l-0.001-0.002c0,0-0.001-0.001-0.001-0.001l0,0c-0.001-0.001-0.002-0.002-0.003-0.004l0,0c-0.002-0.002-0.004-0.005-0.006-0.007 l-0.01-0.012l-0.001-0.001l0,0c-0.006-0.007-0.011-0.014-0.017-0.022l-0.001-0.001c-0.002-0.002-0.004-0.005-0.005-0.007l0,0 c-0.001-0.002-0.003-0.003-0.004-0.005l-0.001-0.001c-0.003-0.004-0.006-0.008-0.009-0.011l-0.001-0.001l0,0l-0.001-0.001 c0,0-0.001-0.001-0.001-0.002h0c-0.001-0.001-0.002-0.003-0.004-0.005l-0.001-0.001c-0.001-0.001-0.001-0.001-0.002-0.002l0,0 c-0.001-0.001-0.002-0.002-0.003-0.003l-0.001-0.001c-0.003-0.004-0.007-0.009-0.01-0.013l-0.001-0.001 c-0.001-0.001-0.002-0.002-0.002-0.003l-0.001-0.001c-0.001-0.001-0.001-0.002-0.002-0.003l-0.002-0.002c0,0,0,0-0.001-0.001 l-0.001-0.001c-0.002-0.002-0.003-0.004-0.005-0.006l0,0c-0.002-0.002-0.004-0.005-0.005-0.007l0,0 c-0.001-0.002-0.003-0.003-0.004-0.005l-0.001-0.002c0,0-0.001-0.001-0.001-0.001l-0.002-0.002l-0.001-0.001l-0.004-0.005 c-0.003-0.004-0.006-0.007-0.009-0.011l-0.001-0.001c-0.001-0.002-0.003-0.003-0.004-0.005l-0.001-0.001l-0.001-0.001l-0.001-0.002 c0,0,0,0,0,0l-0.002-0.002c0,0-0.001-0.001-0.001-0.001l-0.005-0.007c0,0-0.001-0.001-0.001-0.001l-0.002-0.003 c-0.001-0.001-0.001-0.002-0.002-0.003l-0.001-0.001c-0.003-0.004-0.006-0.007-0.008-0.011l-0.001-0.001l0,0l-0.002-0.002 c0-0.001-0.001-0.001-0.001-0.002l-0.006-0.007c-0.001-0.001-0.001-0.002-0.002-0.002l0,0c0,0-0.001-0.001-0.001-0.001l0,0 c-0.001-0.001-0.002-0.002-0.003-0.003l0,0c-0.005-0.006-0.01-0.013-0.015-0.019l-0.001-0.001 c-0.001-0.001-0.002-0.002-0.003-0.004l-0.001-0.001c0-0.001-0.001-0.001-0.001-0.002l0,0c0,0-0.001-0.002-0.002-0.002 l-0.001-0.001c-0.007-0.008-0.013-0.016-0.02-0.024l-0.001-0.002c-0.003-0.004-0.007-0.008-0.01-0.012l0,0 c-0.001-0.001-0.001-0.002-0.002-0.002l-0.001-0.001c0,0-0.001-0.001-0.001-0.001l-0.001-0.001c0,0-0.001-0.001-0.001-0.001 l-0.001-0.001l-0.001-0.001l-0.001-0.001c0,0-0.001-0.001-0.001-0.001l-0.002-0.002l-0.001-0.001l0,0 c-0.002-0.002-0.004-0.005-0.006-0.007l-0.001-0.001c0,0,0-0.001-0.001-0.001l0,0c0,0-0.001-0.001-0.001-0.001l-0.001-0.001 c-0.002-0.002-0.004-0.005-0.006-0.007l-0.001-0.001c-0.003-0.004-0.006-0.007-0.009-0.011l-0.001-0.001 c-0.001-0.002-0.003-0.004-0.004-0.005l-0.001-0.001l0,0l-0.003-0.003c-0.001-0.001-0.001-0.002-0.002-0.003l-0.003-0.004 c-0.002-0.003-0.004-0.006-0.007-0.008l0,0c0-0.001-0.001-0.001-0.001-0.002l-0.001-0.001l-0.001-0.001l0,0 c0,0-0.001-0.001-0.001-0.001h0c-0.001-0.001-0.002-0.002-0.002-0.003l-0.003-0.003c0,0-0.001-0.001-0.001-0.001l-0.001-0.001l0,0 l-0.003-0.004c0,0,0,0,0,0l-0.001-0.001c-0.006-0.007-0.011-0.014-0.016-0.021l0,0c-0.002-0.002-0.003-0.004-0.005-0.006 l-0.001-0.002c-0.001-0.002-0.003-0.004-0.004-0.005h0c0,0-0.001-0.001-0.002-0.002L47.86,61.16l0,0l-0.004-0.006l-0.001-0.001l0,0 c0-0.001-0.001-0.001-0.001-0.002l0,0c-0.002-0.002-0.004-0.005-0.005-0.007l0,0l0,0l0,0l-0.001-0.001h0 c0,0-0.001-0.001-0.001-0.001l0-0.001l0,0l0,0c-0.002-0.003-0.004-0.005-0.006-0.007l0,0l0,0h0c0-0.001-0.001-0.001-0.001-0.002 l0,0c0,0,0,0,0-0.001l0,0l0,0l0,0l0,0l0,0l0,0l0,0c0,0,0-0.001,0-0.001l-0.001-0.002c0,0,0,0,0-0.001h0l0,0l0,0 c-0.499-0.624-1.211-1.011-2.006-1.092C45.725,60.023,45.625,60.018,45.526,60.018L45.526,60.018z M45.516,58.163 c-1.112,0-2.198,0.396-3.06,1.114l-0.398,0.331c-0.321,0.268-0.708,0.45-1.121,0.526c-0.136,0.025-0.225,0.156-0.2,0.291 c0.022,0.12,0.127,0.204,0.246,0.204c0.015,0,0.031-0.001,0.046-0.004c0.451-0.084,0.879-0.272,1.247-0.552l0,0 c0.001-0.001,0.001-0.001,0.002-0.002l0,0c0.002-0.002,0.005-0.004,0.007-0.005h0c0.003-0.002,0.006-0.005,0.009-0.007c0,0,0,0,0,0 c0.002-0.002,0.004-0.003,0.007-0.005l0,0c0.001-0.001,0.001-0.001,0.002-0.002c0,0,0,0,0,0c0.002-0.002,0.004-0.003,0.006-0.005 c0,0,0,0,0.001,0c0.001,0,0.001-0.001,0.002-0.001c0,0,0,0,0.001-0.001c0.002-0.002,0.004-0.003,0.006-0.005l0.001-0.001 c0.001,0,0.001-0.001,0.002-0.001c0,0,0.001-0.001,0.001-0.001c0.001-0.001,0.002-0.001,0.003-0.002c0,0,0.001-0.001,0.001-0.001 c0,0,0.001-0.001,0.001-0.001c0.001-0.001,0.001-0.001,0.002-0.001c0.001,0,0.001-0.001,0.001-0.001c0,0,0.001-0.001,0.001-0.001 c0.001-0.001,0.002-0.001,0.002-0.002c0,0,0.001-0.001,0.001-0.001c0.001,0,0.001-0.001,0.002-0.001c0,0,0.001-0.001,0.001-0.001 l0.001-0.001c0.001,0,0.001-0.001,0.002-0.001c0.001,0,0.001-0.001,0.002-0.002c0,0,0.001-0.001,0.001-0.001 c0.001-0.001,0.001-0.001,0.002-0.001c0,0,0.001-0.001,0.001-0.001c0,0,0.001-0.001,0.001-0.001c0,0,0.002-0.001,0.003-0.002 c0,0,0.001,0,0.001-0.001c0.001,0,0.001-0.001,0.002-0.001l0.001-0.001c0.001,0,0.001-0.001,0.002-0.001 c0,0,0.001-0.001,0.001-0.001c0.001-0.001,0.002-0.001,0.003-0.002c0,0,0.001-0.001,0.001-0.001 c0.001-0.001,0.002-0.001,0.002-0.002c0,0,0.001,0,0.001-0.001c0.001,0,0.001-0.001,0.001-0.001 c0.001-0.001,0.001-0.001,0.001-0.001c0.001-0.001,0.002-0.002,0.003-0.002c0,0,0.001,0,0.001-0.001c0,0,0.001-0.001,0.002-0.002 c0,0,0.001,0,0.001,0c0.001-0.001,0.002-0.002,0.003-0.003l0,0l0,0l0.017-0.014l0,0l0.045-0.037l0,0l0.064-0.053l0,0l0.073-0.061 l0,0l0.073-0.061l0,0l0.064-0.053l0,0l0.045-0.037l0,0l0.017-0.014l0,0c0.779-0.65,1.742-0.998,2.74-0.998l0,0 c0.148,0,0.297,0.008,0.446,0.023c1.16,0.117,2.199,0.683,2.927,1.593l0,0l0.43,0.537c0.049,0.062,0.122,0.094,0.195,0.094 c0.055,0,0.11-0.018,0.156-0.055c0.108-0.086,0.125-0.244,0.039-0.351l-0.43-0.537c-0.812-1.016-1.973-1.647-3.267-1.778 C45.847,58.171,45.681,58.163,45.516,58.163L45.516,58.163z"/></g><path fill="#472b29" d="M55.219,61.69c-0.167,0-0.336-0.041-0.492-0.127c-0.491-0.272-0.667-0.89-0.395-1.38L56.3,56.63	c0.271-0.49,0.889-0.667,1.38-0.396c0.491,0.272,0.667,0.89,0.395,1.381l-1.969,3.552C55.922,61.501,55.575,61.69,55.219,61.69z"/><g><path fill="#605e60" d="M72.142,36.982v1.449c-0.494,0.948-1.015,1.916-1.557,2.897 c-6.234,11.25-12.638,19.313-14.71,18.162c-2.071-1.151,1.367-10.851,7.609-22.102c1.503-2.708,3.026-5.233,4.502-7.487 C70.464,31.296,72.142,33.95,72.142,36.982z"/></g><g><path fill="#d1dae7" d="M72.142,36.982v1.422c-0.305,0.582-0.616,1.178-0.934,1.774c-0.921-0.088-2.112-0.447-3.608-1.279 l-0.264-0.142c-1.57-0.9-2.579-1.753-3.188-2.538c1.286-2.241,2.593-4.359,3.872-6.295C70.477,31.323,72.142,33.963,72.142,36.982z"/><path fill="#472b29" d="M71.351,40.442l-0.166-0.016c-1.085-0.104-2.332-0.546-3.706-1.311l-0.26-0.14 c-1.491-0.855-2.589-1.73-3.268-2.605l-0.103-0.133l0.083-0.145c1.263-2.201,2.568-4.323,3.88-6.31l0.129-0.195l0.204,0.116 c2.621,1.494,4.249,4.283,4.249,7.277l-0.028,1.537c-0.305,0.583-0.617,1.18-0.935,1.776L71.351,40.442z M64.45,36.194 c0.646,0.781,1.658,1.569,3.011,2.345l0.257,0.138c1.246,0.694,2.371,1.108,3.35,1.233c0.28-0.526,0.555-1.052,0.825-1.568v-1.359 c0-2.737-1.448-5.293-3.795-6.725C66.865,32.134,65.639,34.129,64.45,36.194z"/></g><g><path fill="#605e60" d="M72.205,36.971v1.277c-1.004,0.055-2.39-0.43-3.831-1.263c-2.308-1.338-3.885-2.848-3.189-4.111 c0.662-1.195,1.338-2.349,2.014-3.448c1.156,0.492,2.177,1.242,2.991,2.176C71.444,33.042,72.205,34.921,72.205,36.971z"/><path fill="#472b29" d="M72.048,38.502c-0.999,0-2.348-0.462-3.799-1.301c-2.843-1.648-3.978-3.187-3.283-4.448 c0.65-1.173,1.33-2.337,2.021-3.458l0.113-0.184l0.198,0.084c1.173,0.499,2.239,1.274,3.081,2.242 c1.339,1.538,2.077,3.503,2.077,5.533v1.514l-0.236,0.014C72.163,38.501,72.106,38.502,72.048,38.502z M67.298,29.743 c-0.647,1.058-1.284,2.15-1.895,3.252c-0.719,1.305,1.631,2.924,3.096,3.773c1.33,0.769,2.552,1.204,3.456,1.232v-1.03 c0-1.909-0.694-3.758-1.954-5.205C69.256,30.909,68.325,30.213,67.298,29.743z"/></g><g><path fill="#472b29" d="M59.344,55.135c-0.053,0-0.105-0.017-0.15-0.051c-0.11-0.083-0.132-0.239-0.049-0.35 c0.029-0.039,2.956-3.923,5.023-7.274l0.363-0.591c0.073-0.118,0.227-0.156,0.344-0.083c0.118,0.071,0.155,0.226,0.083,0.343 l-0.364,0.593c-2.081,3.373-5.02,7.274-5.049,7.313C59.494,55.101,59.419,55.135,59.344,55.135z M65.773,45.534 c-0.043,0-0.087-0.011-0.127-0.035c-0.119-0.07-0.158-0.224-0.088-0.342c0.598-1.011,1.097-1.882,1.495-2.595 c0.067-0.121,0.22-0.166,0.34-0.096c0.121,0.067,0.164,0.22,0.096,0.34c-0.4,0.715-0.901,1.59-1.501,2.604 C65.942,45.49,65.859,45.534,65.773,45.534z M68.229,41.179c-0.04,0-0.079-0.009-0.116-0.028c-0.122-0.064-0.169-0.216-0.105-0.338 c0.151-0.289,0.228-0.44,0.229-0.441c0.063-0.124,0.213-0.172,0.336-0.109c0.124,0.062,0.173,0.213,0.11,0.336 c0,0-0.078,0.153-0.232,0.447C68.406,41.13,68.319,41.179,68.229,41.179z"/></g><g><path fill="#472b29" d="M70.178,36.902c-0.038,0-0.076-0.009-0.112-0.026c-0.124-0.062-0.173-0.212-0.112-0.335l1.321-2.642 c0.063-0.123,0.212-0.172,0.335-0.112c0.124,0.062,0.173,0.212,0.112,0.335l-1.321,2.642 C70.357,36.852,70.269,36.902,70.178,36.902z"/></g><g><path fill="#472b29" d="M56.318,60.1c-0.25,0-0.478-0.058-0.685-0.172c-3.152-1.753,3.177-15.145,7.414-22.781 c0.542-0.978,1.088-1.924,1.632-2.848c-0.282-0.714-0.128-1.267,0.066-1.619c0.642-1.158,1.318-2.315,2.009-3.439 c0.144-0.235,0.452-0.312,0.688-0.164c0.235,0.145,0.309,0.452,0.164,0.688c-0.683,1.111-1.351,2.256-1.985,3.399 c-0.093,0.168-0.188,0.449,0.065,0.934c0.08,0.153,0.075,0.337-0.013,0.486c-0.584,0.988-1.169,2-1.752,3.049 c-7.126,12.846-9.11,20.694-7.802,21.421c0.116,0.069,1.284,0.509,5.161-4.307c2.686-3.336,5.835-8.188,8.868-13.66 c0.519-0.939,1.019-1.868,1.495-2.778v-0.06c0-0.276,0.224-0.5,0.5-0.5s0.5,0.224,0.5,0.5v0.183c0,0.08-0.02,0.16-0.057,0.231 c-0.496,0.951-1.019,1.923-1.563,2.907c-3.061,5.522-6.244,10.424-8.964,13.804C59.509,58.541,57.619,60.1,56.318,60.1z"/></g></svg>